<svg xmlns="http://www.w3.org/2000/svg" xmlns:xlink="http://www.w3.org/1999/xlink" width="100" zoomAndPan="magnify" viewBox="0 0 75 74.999997" height="100" preserveAspectRatio="xMidYMid meet" version="1.0"><defs><clipPath id="b5f088bd54"><path d="M 2.398438 7.5 L 72.601562 7.5 L 72.601562 19.148438 L 2.398438 19.148438 Z M 2.398438 7.5 " clip-rule="nonzero"/></clipPath><clipPath id="70fbe06060"><path d="M 2.398438 30.53125 L 72.601562 30.53125 L 72.601562 42.449219 L 2.398438 42.449219 Z M 2.398438 30.53125 " clip-rule="nonzero"/></clipPath><clipPath id="b6645dacd2"><path d="M 2.398438 53.832031 L 72.601562 53.832031 L 72.601562 65.25 L 2.398438 65.25 Z M 2.398438 53.832031 " clip-rule="nonzero"/></clipPath></defs><g clip-path="url(#b5f088bd54)"><path fill="#4040ff" d="M 66.796875 19.105469 L 8.199219 19.105469 C 4.996094 19.105469 2.398438 16.507812 2.398438 13.300781 C 2.398438 10.097656 4.996094 7.5 8.199219 7.5 L 66.796875 7.5 C 70.003906 7.5 72.601562 10.097656 72.601562 13.300781 C 72.601562 16.507812 70.003906 19.105469 66.796875 19.105469 " fill-opacity="1" fill-rule="nonzero"/></g><g clip-path="url(#70fbe06060)"><path fill="#4040ff" d="M 66.796875 42.3125 L 8.199219 42.3125 C 4.996094 42.3125 2.398438 39.714844 2.398438 36.507812 C 2.398438 33.304688 4.996094 30.707031 8.199219 30.707031 L 66.796875 30.707031 C 70.003906 30.707031 72.601562 33.304688 72.601562 36.507812 C 72.601562 39.714844 70.003906 42.3125 66.796875 42.3125 " fill-opacity="1" fill-rule="nonzero"/></g><g clip-path="url(#b6645dacd2)"><path fill="#4040ff" d="M 66.796875 65.519531 L 8.199219 65.519531 C 4.996094 65.519531 2.398438 62.921875 2.398438 59.71875 C 2.398438 56.511719 4.996094 53.914062 8.199219 53.914062 L 66.796875 53.914062 C 70.003906 53.914062 72.601562 56.511719 72.601562 59.71875 C 72.601562 62.921875 70.003906 65.519531 66.796875 65.519531 " fill-opacity="1" fill-rule="nonzero"/></g></svg>