<svg xmlns="http://www.w3.org/2000/svg" xmlns:xlink="http://www.w3.org/1999/xlink" width="100" zoomAndPan="magnify" viewBox="0 0 75 74.999997" height="100" preserveAspectRatio="xMidYMid meet" version="1.0"><defs><clipPath id="44d3dd57d2"><path d="M 2 4.921875 L 73 4.921875 L 73 70 L 2 70 Z M 2 4.921875 " clip-rule="nonzero"/></clipPath></defs><g clip-path="url(#44d3dd57d2)"><path fill="#4040ff" d="M 71.554688 4.957031 L 69.453125 5.441406 C 68.164062 5.828125 66.796875 6.386719 65.347656 7.121094 L 63.113281 8.351562 C 61.585938 9.261719 59.980469 10.34375 58.289062 11.605469 C 54.914062 14.121094 51.222656 17.335938 47.207031 21.246094 C 37.382812 31.089844 28.671875 41.902344 21.074219 53.683594 C 19.726562 50.84375 17.710938 47.503906 15.03125 43.660156 C 13.601562 41.726562 12.132812 40.265625 10.621094 39.285156 C 8.933594 39.082031 6.160156 40.332031 2.300781 43.035156 C 2.054688 43.40625 1.996094 43.695312 2.121094 43.898438 C 5.585938 47.4375 8.003906 50.378906 9.382812 52.722656 C 11.953125 56.753906 14.652344 62.410156 17.476562 69.691406 C 17.632812 69.9375 17.832031 70.019531 18.070312 69.941406 L 27.277344 64.140625 C 27.714844 63.839844 28.136719 63.4375 28.535156 62.933594 C 33.164062 49.921875 38.6875 39.339844 45.101562 31.1875 C 47.03125 28.441406 51.796875 23.59375 59.394531 16.644531 C 62.46875 13.902344 66.851562 10.574219 72.535156 6.664062 C 72.867188 5.917969 72.539062 5.347656 71.554688 4.957031 " fill-opacity="0.996" fill-rule="nonzero"/></g></svg>