<svg xmlns="http://www.w3.org/2000/svg" xmlns:xlink="http://www.w3.org/1999/xlink" width="180" zoomAndPan="magnify" viewBox="0 0 135 135.000003" height="180" preserveAspectRatio="xMidYMid meet" version="1.0"><defs><clipPath id="7aa68ad1cc"><path d="M 4.863281 4.367188 L 130.136719 4.367188 L 130.136719 129.640625 L 4.863281 129.640625 Z M 4.863281 4.367188 " clip-rule="nonzero"/></clipPath><clipPath id="1ab367949e"><path d="M 18.265625 4.367188 L 116.734375 4.367188 C 120.289062 4.367188 123.695312 5.78125 126.210938 8.292969 C 128.722656 10.804688 130.136719 14.214844 130.136719 17.769531 L 130.136719 116.238281 C 130.136719 119.792969 128.722656 123.199219 126.210938 125.714844 C 123.695312 128.226562 120.289062 129.640625 116.734375 129.640625 L 18.265625 129.640625 C 14.710938 129.640625 11.304688 128.226562 8.789062 125.714844 C 6.277344 123.199219 4.863281 119.792969 4.863281 116.238281 L 4.863281 17.769531 C 4.863281 14.214844 6.277344 10.804688 8.789062 8.292969 C 11.304688 5.78125 14.710938 4.367188 18.265625 4.367188 Z M 18.265625 4.367188 " clip-rule="nonzero"/></clipPath><clipPath id="a361340ae0"><path d="M 0.863281 0.367188 L 126.136719 0.367188 L 126.136719 125.640625 L 0.863281 125.640625 Z M 0.863281 0.367188 " clip-rule="nonzero"/></clipPath><clipPath id="0f24c90923"><path d="M 14.265625 0.367188 L 112.734375 0.367188 C 116.289062 0.367188 119.695312 1.78125 122.210938 4.292969 C 124.722656 6.804688 126.136719 10.214844 126.136719 13.769531 L 126.136719 112.238281 C 126.136719 115.792969 124.722656 119.199219 122.210938 121.714844 C 119.695312 124.226562 116.289062 125.640625 112.734375 125.640625 L 14.265625 125.640625 C 10.710938 125.640625 7.304688 124.226562 4.789062 121.714844 C 2.277344 119.199219 0.863281 115.792969 0.863281 112.238281 L 0.863281 13.769531 C 0.863281 10.214844 2.277344 6.804688 4.789062 4.292969 C 7.304688 1.78125 10.710938 0.367188 14.265625 0.367188 Z M 14.265625 0.367188 " clip-rule="nonzero"/></clipPath><clipPath id="adafe8866b"><rect x="0" width="127" y="0" height="126"/></clipPath><clipPath id="9ebc9bb2ef"><path d="M 20.984375 10.707031 L 114 10.707031 L 114 123.121094 L 20.984375 123.121094 Z M 20.984375 10.707031 " clip-rule="nonzero"/></clipPath></defs><g clip-path="url(#7aa68ad1cc)"><g clip-path="url(#1ab367949e)"><g transform="matrix(1, 0, 0, 1, 4, 4)"><g clip-path="url(#adafe8866b)"><g clip-path="url(#a361340ae0)"><g clip-path="url(#0f24c90923)"><path fill="#1e40ff" d="M 0.863281 0.367188 L 126.136719 0.367188 L 126.136719 125.640625 L 0.863281 125.640625 Z M 0.863281 0.367188 " fill-opacity="1" fill-rule="nonzero"/></g></g></g></g></g></g><g clip-path="url(#9ebc9bb2ef)"><path fill="#1e40ff" d="M 66.925781 123.226562 C 65.503906 123.226562 64.207031 123.011719 63.074219 122.589844 C 56.472656 120.113281 50.570312 117.09375 45.527344 113.636719 C 38.441406 108.71875 32.660156 102.996094 27.84375 96.125 C 23.113281 89.371094 22.90625 83.632812 22.652344 76.367188 L 22.589844 74.78125 C 22.15625 64.304688 21.800781 53.65625 21.460938 43.355469 C 21.304688 38.644531 21.148438 33.929688 20.984375 29.21875 C 20.960938 28.550781 21.207031 27.902344 21.667969 27.417969 C 22.128906 26.933594 22.765625 26.65625 23.433594 26.648438 C 45.257812 26.367188 65.5 11.371094 65.703125 11.222656 C 66.128906 10.902344 66.652344 10.726562 67.191406 10.726562 L 67.742188 10.726562 C 68.277344 10.726562 68.804688 10.902344 69.230469 11.21875 C 69.433594 11.371094 89.726562 26.367188 111.5 26.648438 C 112.171875 26.65625 112.808594 26.933594 113.269531 27.421875 C 113.734375 27.910156 113.976562 28.5625 113.949219 29.230469 C 113.867188 31.339844 113.792969 33.433594 113.71875 35.523438 C 113.582031 39.78125 113.414062 44.058594 113.242188 48.332031 C 113.039062 53.441406 112.835938 58.554688 112.691406 63.664062 C 112.640625 65.539062 112.695312 67.675781 112.753906 69.9375 C 112.949219 77.253906 113.167969 85.558594 110.003906 91.539062 C 106.503906 98.132812 101.546875 104.046875 95.269531 109.121094 C 89.921875 113.488281 85 116.808594 80.226562 119.257812 C 77.328125 120.738281 71.746094 123.226562 66.925781 123.226562 Z M 26.035156 31.523438 C 26.167969 35.410156 26.296875 39.300781 26.425781 43.195312 C 26.765625 53.480469 27.117188 64.121094 27.554688 74.582031 L 27.613281 76.191406 C 27.863281 83.136719 28.027344 87.726562 31.910156 93.28125 C 36.382812 99.652344 41.761719 104.980469 48.347656 109.550781 C 53.050781 112.777344 58.59375 115.601562 64.808594 117.9375 C 65.378906 118.148438 66.09375 118.261719 66.925781 118.261719 C 69.6875 118.261719 73.710938 117.011719 77.960938 114.835938 C 82.417969 112.542969 87.054688 109.417969 92.132812 105.265625 C 97.902344 100.605469 102.433594 95.210938 105.613281 89.222656 C 108.167969 84.378906 107.964844 76.777344 107.789062 70.066406 C 107.726562 67.734375 107.667969 65.535156 107.726562 63.527344 C 107.871094 58.394531 108.074219 53.265625 108.277344 48.132812 C 108.449219 43.871094 108.617188 39.609375 108.753906 35.355469 C 108.796875 34.078125 108.84375 32.800781 108.890625 31.523438 C 89.398438 30.375 72.140625 19.3125 67.46875 16.066406 C 62.792969 19.3125 45.53125 30.378906 26.035156 31.523438 Z M 26.035156 31.523438 " fill-opacity="1" fill-rule="nonzero"/></g><path fill="#ffffff" d="M 67.742188 13.207031 L 67.191406 13.207031 C 67.191406 13.207031 46.351562 28.835938 23.46875 29.132812 C 23.996094 44.300781 24.441406 59.492188 25.074219 74.6875 C 25.378906 82.683594 25.253906 88.101562 29.878906 94.703125 C 34.59375 101.433594 40.128906 106.867188 46.929688 111.589844 C 52.167969 115.183594 57.964844 118.019531 63.933594 120.261719 C 68.34375 121.890625 75.285156 118.992188 79.09375 117.046875 C 84.289062 114.378906 89.175781 110.890625 93.703125 107.1875 C 99.417969 102.574219 104.347656 96.902344 107.808594 90.382812 C 111.605469 83.191406 109.984375 71.449219 110.207031 63.597656 C 110.476562 54.207031 110.941406 44.808594 111.234375 35.4375 C 111.3125 33.34375 111.382812 31.246094 111.46875 29.128906 C 88.585938 28.835938 67.742188 13.207031 67.742188 13.207031 Z M 67.742188 13.207031 " fill-opacity="1" fill-rule="evenodd"/><path fill="#1e40ff" d="M 67.699219 22.675781 L 67.234375 22.675781 C 67.234375 22.675781 50.085938 35.5625 31.230469 35.816406 L 32.914062 83.40625 C 32.914062 83.40625 39.261719 101.433594 64.558594 110.847656 C 68.1875 112.183594 73.898438 109.808594 77.03125 108.226562 C 81.328125 106.003906 85.347656 103.125 89.074219 100.121094 C 93.769531 96.269531 97.832031 91.609375 100.675781 86.257812 C 101.171875 85.328125 101.679688 84.371094 102.019531 83.40625 L 103.703125 35.816406 C 84.851562 35.5625 67.699219 22.675781 67.699219 22.675781 Z M 67.699219 22.675781 " fill-opacity="1" fill-rule="evenodd"/><path fill="#ffffff" d="M 84.828125 47.558594 L 63.160156 73.523438 L 53.882812 62.160156 L 46.878906 67.871094 L 59.625 83.488281 C 60.484375 84.546875 61.765625 85.140625 63.109375 85.140625 L 63.121094 85.140625 C 64.453125 85.140625 65.742188 84.546875 66.589844 83.53125 L 91.777344 53.316406 Z M 84.828125 47.558594 " fill-opacity="1" fill-rule="nonzero"/><path fill="#03bdff" d="M 67.464844 27.015625 C 47.367188 38.925781 35.316406 37.722656 35.316406 37.722656 C 51.851562 43.308594 67.464844 30.800781 67.464844 30.800781 C 67.464844 30.800781 83.082031 43.308594 99.617188 37.722656 C 99.617188 37.722656 87.566406 38.925781 67.464844 27.015625 Z M 67.464844 27.015625 " fill-opacity="1" fill-rule="evenodd"/><path fill="#03bdff" d="M 99.617188 59.664062 C 99.617188 59.664062 90.414062 97.492188 65.574219 106.59375 C 65.574219 106.59375 79.273438 108.414062 98.433594 82.578125 Z M 99.617188 59.664062 " fill-opacity="1" fill-rule="evenodd"/><path fill="#ffffff" d="M 99.617188 30.800781 C 99.269531 31.648438 89.074219 30.378906 84.816406 28.558594 C 80.566406 26.757812 77.398438 24.601562 77.761719 23.738281 C 78.121094 22.890625 81.875 23.648438 86.152344 25.46875 C 90.394531 27.265625 99.988281 29.957031 99.617188 30.800781 Z M 99.617188 30.800781 " fill-opacity="1" fill-rule="evenodd"/><path fill="#ffffff" d="M 75.105469 20.8125 C 75.105469 22.125 73.984375 23.183594 72.558594 23.183594 C 71.148438 23.183594 70.015625 22.125 70.015625 20.8125 C 70.015625 19.503906 71.148438 18.445312 72.558594 18.445312 C 73.984375 18.445312 75.105469 19.503906 75.105469 20.8125 Z M 75.105469 20.8125 " fill-opacity="1" fill-rule="evenodd"/></svg>