<svg xmlns="http://www.w3.org/2000/svg" xmlns:xlink="http://www.w3.org/1999/xlink" width="50" zoomAndPan="magnify" viewBox="0 0 37.5 37.499999" height="50" preserveAspectRatio="xMidYMid meet" version="1.0"><defs><clipPath id="46013cbf81"><path d="M 1.589844 1.589844 L 35.636719 1.589844 L 35.636719 35.636719 L 1.589844 35.636719 Z M 1.589844 1.589844 " clip-rule="nonzero"/></clipPath><clipPath id="9fae7f2be2"><path d="M 10 7 L 27 7 L 27 35.636719 L 10 35.636719 Z M 10 7 " clip-rule="nonzero"/></clipPath></defs><g clip-path="url(#46013cbf81)"><path fill="#0866ff" d="M 35.640625 18.617188 C 35.640625 9.214844 28.019531 1.589844 18.617188 1.589844 C 9.214844 1.589844 1.589844 9.214844 1.589844 18.617188 C 1.589844 26.601562 7.085938 33.300781 14.503906 35.140625 L 14.503906 23.820312 L 10.992188 23.820312 L 10.992188 18.617188 L 14.503906 18.617188 L 14.503906 16.375 C 14.503906 10.582031 17.125 7.894531 22.816406 7.894531 C 23.894531 7.894531 25.753906 8.105469 26.515625 8.316406 L 26.515625 13.035156 C 26.113281 12.992188 25.414062 12.96875 24.550781 12.96875 C 21.757812 12.96875 20.679688 14.027344 20.679688 16.777344 L 20.679688 18.617188 L 26.238281 18.617188 L 25.285156 23.820312 L 20.679688 23.820312 L 20.679688 35.515625 C 29.109375 34.5 35.640625 27.320312 35.640625 18.617188 Z M 35.640625 18.617188 " fill-opacity="1" fill-rule="nonzero"/></g><g clip-path="url(#9fae7f2be2)"><path fill="#ffffff" d="M 25.285156 23.820312 L 26.242188 18.617188 L 20.679688 18.617188 L 20.679688 16.777344 C 20.679688 14.027344 21.757812 12.96875 24.550781 12.96875 C 25.417969 12.96875 26.117188 12.992188 26.519531 13.035156 L 26.519531 8.316406 C 25.757812 8.105469 23.894531 7.894531 22.816406 7.894531 C 17.128906 7.894531 14.503906 10.582031 14.503906 16.375 L 14.503906 18.617188 L 10.992188 18.617188 L 10.992188 23.820312 L 14.503906 23.820312 L 14.503906 35.140625 C 15.824219 35.46875 17.199219 35.644531 18.617188 35.644531 C 19.316406 35.644531 20.003906 35.601562 20.683594 35.519531 L 20.683594 23.820312 L 25.289062 23.820312 Z M 25.285156 23.820312 " fill-opacity="1" fill-rule="nonzero"/></g></svg>