<svg xmlns="http://www.w3.org/2000/svg" xmlns:xlink="http://www.w3.org/1999/xlink" width="50" zoomAndPan="magnify" viewBox="0 0 37.5 37.499999" height="50" preserveAspectRatio="xMidYMid meet" version="1.0"><defs><clipPath id="d913b660d7"><path d="M 1.589844 1.589844 L 35.636719 1.589844 L 35.636719 35.636719 L 1.589844 35.636719 Z M 1.589844 1.589844 " clip-rule="nonzero"/></clipPath><clipPath id="8baf93338b"><path d="M 6.601562 6.359375 L 30.285156 6.359375 L 30.285156 30.78125 L 6.601562 30.78125 Z M 6.601562 6.359375 " clip-rule="nonzero"/></clipPath></defs><g clip-path="url(#d913b660d7)"><path fill="#000000" d="M 8.886719 1.589844 L 28.113281 1.589844 C 28.59375 1.589844 29.066406 1.636719 29.539062 1.730469 C 30.007812 1.824219 30.464844 1.964844 30.90625 2.148438 C 31.347656 2.332031 31.769531 2.554688 32.167969 2.820312 C 32.566406 3.085938 32.933594 3.390625 33.273438 3.730469 C 33.613281 4.066406 33.914062 4.4375 34.179688 4.835938 C 34.449219 5.234375 34.671875 5.652344 34.855469 6.097656 C 35.039062 6.539062 35.175781 6.996094 35.269531 7.464844 C 35.363281 7.933594 35.410156 8.410156 35.410156 8.886719 L 35.410156 28.113281 C 35.410156 28.59375 35.363281 29.066406 35.269531 29.539062 C 35.175781 30.007812 35.039062 30.464844 34.855469 30.90625 C 34.671875 31.347656 34.449219 31.769531 34.179688 32.167969 C 33.914062 32.566406 33.613281 32.933594 33.273438 33.273438 C 32.933594 33.613281 32.566406 33.914062 32.167969 34.179688 C 31.769531 34.449219 31.347656 34.671875 30.90625 34.855469 C 30.464844 35.039062 30.007812 35.175781 29.539062 35.269531 C 29.066406 35.363281 28.59375 35.410156 28.113281 35.410156 L 8.886719 35.410156 C 8.410156 35.410156 7.933594 35.363281 7.464844 35.269531 C 6.996094 35.175781 6.539062 35.039062 6.097656 34.855469 C 5.652344 34.671875 5.234375 34.449219 4.835938 34.179688 C 4.4375 33.914062 4.066406 33.613281 3.730469 33.273438 C 3.390625 32.933594 3.085938 32.566406 2.820312 32.167969 C 2.554688 31.769531 2.332031 31.347656 2.148438 30.90625 C 1.964844 30.464844 1.824219 30.007812 1.730469 29.539062 C 1.636719 29.066406 1.589844 28.59375 1.589844 28.113281 L 1.589844 8.886719 C 1.589844 8.410156 1.636719 7.933594 1.730469 7.464844 C 1.824219 6.996094 1.964844 6.539062 2.148438 6.097656 C 2.332031 5.652344 2.554688 5.234375 2.820312 4.835938 C 3.085938 4.4375 3.390625 4.066406 3.730469 3.730469 C 4.066406 3.390625 4.4375 3.085938 4.835938 2.820312 C 5.234375 2.554688 5.652344 2.332031 6.097656 2.148438 C 6.539062 1.964844 6.996094 1.824219 7.464844 1.730469 C 7.933594 1.636719 8.410156 1.589844 8.886719 1.589844 Z M 8.886719 1.589844 " fill-opacity="1" fill-rule="nonzero"/></g><g clip-path="url(#8baf93338b)"><path fill="#ffffff" d="M 20.765625 16.644531 L 29.613281 6.359375 L 27.515625 6.359375 L 19.832031 15.289062 L 13.695312 6.359375 L 6.621094 6.359375 L 15.898438 19.863281 L 6.621094 30.648438 L 8.714844 30.648438 L 16.828125 21.21875 L 23.308594 30.648438 L 30.386719 30.648438 Z M 17.890625 19.980469 L 16.953125 18.636719 L 9.472656 7.9375 L 12.691406 7.9375 L 18.730469 16.570312 L 19.671875 17.917969 L 27.519531 29.140625 L 24.296875 29.140625 Z M 17.890625 19.980469 " fill-opacity="1" fill-rule="nonzero"/></g></svg>