<svg xmlns="http://www.w3.org/2000/svg" xmlns:xlink="http://www.w3.org/1999/xlink" width="50" zoomAndPan="magnify" viewBox="0 0 37.5 37.499999" height="50" preserveAspectRatio="xMidYMid meet" version="1.0"><defs><clipPath id="a2386220c8"><path d="M 1.589844 1.589844 L 35.636719 1.589844 L 35.636719 35.636719 L 1.589844 35.636719 Z M 1.589844 1.589844 " clip-rule="nonzero"/></clipPath><clipPath id="587fd304a5"><path d="M 1.589844 6.03125 L 1.589844 30.972656 C 1.589844 33.425781 3.578125 35.414062 6.03125 35.414062 L 30.972656 35.414062 C 33.425781 35.414062 35.414062 33.425781 35.414062 30.972656 L 35.414062 6.03125 C 35.414062 3.578125 33.425781 1.589844 30.972656 1.589844 L 6.03125 1.589844 C 3.578125 1.589844 1.589844 3.578125 1.589844 6.03125 Z M 1.589844 6.03125 " clip-rule="nonzero"/></clipPath><clipPath id="3f91aff186"><path d="M 8 15 L 17 15 L 17 28 L 8 28 Z M 8 15 " clip-rule="nonzero"/></clipPath><clipPath id="8bc7706fde"><path d="M 1.589844 6.03125 L 1.589844 30.972656 C 1.589844 33.425781 3.578125 35.414062 6.03125 35.414062 L 30.972656 35.414062 C 33.425781 35.414062 35.414062 33.425781 35.414062 30.972656 L 35.414062 6.03125 C 35.414062 3.578125 33.425781 1.589844 30.972656 1.589844 L 6.03125 1.589844 C 3.578125 1.589844 1.589844 3.578125 1.589844 6.03125 Z M 1.589844 6.03125 " clip-rule="nonzero"/></clipPath><clipPath id="4a25f43529"><path d="M 13 7 L 23 7 L 23 27 L 13 27 Z M 13 7 " clip-rule="nonzero"/></clipPath><clipPath id="273350aa49"><path d="M 1.589844 6.03125 L 1.589844 30.972656 C 1.589844 33.425781 3.578125 35.414062 6.03125 35.414062 L 30.972656 35.414062 C 33.425781 35.414062 35.414062 33.425781 35.414062 30.972656 L 35.414062 6.03125 C 35.414062 3.578125 33.425781 1.589844 30.972656 1.589844 L 6.03125 1.589844 C 3.578125 1.589844 1.589844 3.578125 1.589844 6.03125 Z M 1.589844 6.03125 " clip-rule="nonzero"/></clipPath><clipPath id="c5d02355c0"><path d="M 24 11 L 28 11 L 28 14 L 24 14 Z M 24 11 " clip-rule="nonzero"/></clipPath><clipPath id="c1ae70197e"><path d="M 1.589844 6.03125 L 1.589844 30.972656 C 1.589844 33.425781 3.578125 35.414062 6.03125 35.414062 L 30.972656 35.414062 C 33.425781 35.414062 35.414062 33.425781 35.414062 30.972656 L 35.414062 6.03125 C 35.414062 3.578125 33.425781 1.589844 30.972656 1.589844 L 6.03125 1.589844 C 3.578125 1.589844 1.589844 3.578125 1.589844 6.03125 Z M 1.589844 6.03125 " clip-rule="nonzero"/></clipPath><clipPath id="33bcb65b36"><path d="M 22 8 L 25 8 L 25 12 L 22 12 Z M 22 8 " clip-rule="nonzero"/></clipPath><clipPath id="90055316cc"><path d="M 1.589844 6.03125 L 1.589844 30.972656 C 1.589844 33.425781 3.578125 35.414062 6.03125 35.414062 L 30.972656 35.414062 C 33.425781 35.414062 35.414062 33.425781 35.414062 30.972656 L 35.414062 6.03125 C 35.414062 3.578125 33.425781 1.589844 30.972656 1.589844 L 6.03125 1.589844 C 3.578125 1.589844 1.589844 3.578125 1.589844 6.03125 Z M 1.589844 6.03125 " clip-rule="nonzero"/></clipPath><clipPath id="56f759adb7"><path d="M 12 16 L 18 16 L 18 26 L 12 26 Z M 12 16 " clip-rule="nonzero"/></clipPath><clipPath id="4cff2c6786"><path d="M 1.589844 6.03125 L 1.589844 30.972656 C 1.589844 33.425781 3.578125 35.414062 6.03125 35.414062 L 30.972656 35.414062 C 33.425781 35.414062 35.414062 33.425781 35.414062 30.972656 L 35.414062 6.03125 C 35.414062 3.578125 33.425781 1.589844 30.972656 1.589844 L 6.03125 1.589844 C 3.578125 1.589844 1.589844 3.578125 1.589844 6.03125 Z M 1.589844 6.03125 " clip-rule="nonzero"/></clipPath><clipPath id="c975548517"><path d="M 11 13 L 29 13 L 29 31 L 11 31 Z M 11 13 " clip-rule="nonzero"/></clipPath><clipPath id="c3db07ce69"><path d="M 1.589844 6.03125 L 1.589844 30.972656 C 1.589844 33.425781 3.578125 35.414062 6.03125 35.414062 L 30.972656 35.414062 C 33.425781 35.414062 35.414062 33.425781 35.414062 30.972656 L 35.414062 6.03125 C 35.414062 3.578125 33.425781 1.589844 30.972656 1.589844 L 6.03125 1.589844 C 3.578125 1.589844 1.589844 3.578125 1.589844 6.03125 Z M 1.589844 6.03125 " clip-rule="nonzero"/></clipPath><clipPath id="6a62e24600"><path d="M 9 8 L 28 8 L 28 30 L 9 30 Z M 9 8 " clip-rule="nonzero"/></clipPath><clipPath id="92f82fe631"><path d="M 1.589844 6.03125 L 1.589844 30.972656 C 1.589844 33.425781 3.578125 35.414062 6.03125 35.414062 L 30.972656 35.414062 C 33.425781 35.414062 35.414062 33.425781 35.414062 30.972656 L 35.414062 6.03125 C 35.414062 3.578125 33.425781 1.589844 30.972656 1.589844 L 6.03125 1.589844 C 3.578125 1.589844 1.589844 3.578125 1.589844 6.03125 Z M 1.589844 6.03125 " clip-rule="nonzero"/></clipPath></defs><g clip-path="url(#a2386220c8)"><g clip-path="url(#587fd304a5)"><path fill="#000000" d="M 1.589844 1.589844 L 35.644531 1.589844 L 35.644531 35.644531 L 1.589844 35.644531 Z M 1.589844 1.589844 " fill-opacity="1" fill-rule="nonzero"/></g></g><g clip-path="url(#3f91aff186)"><g clip-path="url(#8bc7706fde)"><path fill="#25f4ee" d="M 16.355469 16.183594 L 16.355469 15.257812 C 16.046875 15.21875 15.734375 15.191406 15.414062 15.191406 C 11.546875 15.191406 8.402344 18.335938 8.402344 22.203125 C 8.402344 24.574219 9.585938 26.671875 11.394531 27.941406 C 10.226562 26.6875 9.535156 25.011719 9.535156 23.167969 C 9.535156 19.359375 12.570312 16.269531 16.355469 16.183594 Z M 16.355469 16.183594 " fill-opacity="1" fill-rule="nonzero"/></g></g><g clip-path="url(#4a25f43529)"><g clip-path="url(#273350aa49)"><path fill="#25f4ee" d="M 16.523438 26.390625 C 18.246094 26.390625 19.675781 24.996094 19.738281 23.289062 L 19.753906 8.046875 L 22.515625 8.046875 C 22.515625 8.046875 22.511719 8.023438 22.511719 8.023438 C 22.453125 7.710938 22.421875 7.386719 22.421875 7.058594 L 18.613281 7.058594 L 18.609375 22.324219 C 18.542969 24.03125 17.136719 25.402344 15.414062 25.402344 C 14.875 25.402344 14.371094 25.269531 13.925781 25.035156 C 14.507812 25.84375 15.453125 26.390625 16.523438 26.390625 Z M 16.523438 26.390625 " fill-opacity="1" fill-rule="nonzero"/></g></g><g clip-path="url(#c5d02355c0)"><g clip-path="url(#c1ae70197e)"><path fill="#25f4ee" d="M 27.722656 13.25 L 27.722656 12.355469 C 26.660156 12.355469 25.667969 12.039062 24.835938 11.496094 C 25.578125 12.34375 26.582031 13.003906 27.722656 13.246094 Z M 27.722656 13.25 " fill-opacity="1" fill-rule="nonzero"/></g></g><g clip-path="url(#33bcb65b36)"><g clip-path="url(#90055316cc)"><path fill="#fe2c55" d="M 24.835938 11.496094 C 24.027344 10.566406 23.535156 9.351562 23.535156 8.023438 L 22.496094 8.023438 C 22.765625 9.472656 23.644531 10.71875 24.835938 11.496094 Z M 24.835938 11.496094 " fill-opacity="1" fill-rule="nonzero"/></g></g><g clip-path="url(#56f759adb7)"><g clip-path="url(#4cff2c6786)"><path fill="#fe2c55" d="M 15.414062 18.96875 C 13.648438 18.96875 12.1875 20.433594 12.1875 22.199219 C 12.1875 23.429688 12.90625 24.5 13.925781 25.035156 C 13.546875 24.507812 13.320312 23.863281 13.320312 23.167969 C 13.320312 21.402344 14.757812 19.964844 16.523438 19.964844 C 16.851562 19.964844 17.167969 20.019531 17.46875 20.113281 L 17.46875 16.226562 C 17.15625 16.183594 16.84375 16.15625 16.523438 16.15625 C 16.464844 16.15625 16.410156 16.160156 16.355469 16.164062 L 16.34375 16.164062 C 16.34375 16.164062 16.332031 19.105469 16.332031 19.105469 C 16.03125 19.011719 15.742188 18.972656 15.414062 18.972656 Z M 15.414062 18.96875 " fill-opacity="1" fill-rule="nonzero"/></g></g><g clip-path="url(#c975548517)"><g clip-path="url(#c3db07ce69)"><path fill="#fe2c55" d="M 27.722656 13.203125 L 27.703125 13.199219 L 27.703125 16.140625 C 25.730469 16.140625 23.894531 15.492188 22.398438 14.417969 L 22.398438 22.199219 C 22.398438 26.066406 19.277344 29.191406 15.414062 29.191406 C 13.917969 29.191406 12.535156 28.738281 11.394531 27.9375 C 12.675781 29.3125 14.5 30.175781 16.523438 30.175781 C 20.386719 30.175781 23.53125 27.03125 23.53125 23.167969 L 23.53125 15.425781 C 25.027344 16.496094 26.855469 17.128906 28.832031 17.128906 L 28.832031 13.320312 C 28.449219 13.320312 28.078125 13.28125 27.722656 13.203125 Z M 27.722656 13.203125 " fill-opacity="1" fill-rule="nonzero"/></g></g><g clip-path="url(#6a62e24600)"><g clip-path="url(#92f82fe631)"><path fill="#ffffff" d="M 22.421875 22.199219 L 22.421875 14.460938 C 23.917969 15.53125 25.746094 16.164062 27.722656 16.164062 L 27.722656 13.203125 C 26.578125 12.957031 25.578125 12.347656 24.835938 11.496094 C 23.644531 10.71875 22.78125 9.472656 22.511719 8.023438 L 19.722656 8.023438 L 19.714844 23.289062 C 19.652344 24.996094 18.246094 26.367188 16.519531 26.367188 C 15.453125 26.367188 14.507812 25.839844 13.925781 25.035156 C 12.90625 24.496094 12.207031 23.429688 12.207031 22.199219 C 12.207031 20.433594 13.644531 18.996094 15.410156 18.996094 C 15.742188 18.996094 16.054688 19.050781 16.355469 19.144531 L 16.355469 16.160156 C 12.566406 16.25 9.511719 19.355469 9.511719 23.167969 C 9.511719 25.007812 10.226562 26.6875 11.390625 27.941406 C 12.53125 28.742188 13.914062 29.210938 15.410156 29.210938 C 19.277344 29.210938 22.421875 26.066406 22.421875 22.199219 Z M 22.421875 22.199219 " fill-opacity="1" fill-rule="nonzero"/></g></g></svg>